<mxfile host="app.diagrams.net" modified="2023-10-10T03:26:24.217Z" agent="Mozilla/5.0 (X11; CrOS x86_64 14541.0.0) AppleWebKit/537.36 (KHTML, like Gecko) Chrome/116.0.0.0 Safari/537.36" etag="UOsvuiyhJXnUl38XRDgi" version="22.0.4" type="github">
  <diagram name="Halaman-1" id="w1JyDb_YRj0OqKGa2Gk5">
    <mxGraphModel dx="880" dy="511" grid="1" gridSize="10" guides="1" tooltips="1" connect="1" arrows="1" fold="1" page="1" pageScale="1" pageWidth="827" pageHeight="1169" math="0" shadow="0">
      <root>
        <mxCell id="0" />
        <mxCell id="1" parent="0" />
        <mxCell id="WH0UgR2neAKPmFfiPMhs-2" value="Pustakawan" style="shape=umlActor;verticalLabelPosition=bottom;verticalAlign=top;html=1;outlineConnect=0;" vertex="1" parent="1">
          <mxGeometry x="560" y="250" width="120" height="220" as="geometry" />
        </mxCell>
        <mxCell id="WH0UgR2neAKPmFfiPMhs-4" value="" style="swimlane;startSize=0;" vertex="1" parent="1">
          <mxGeometry x="250" y="160" width="220" height="410" as="geometry" />
        </mxCell>
        <mxCell id="WH0UgR2neAKPmFfiPMhs-8" value="Isi Data Kategori Buku" style="ellipse;whiteSpace=wrap;html=1;" vertex="1" parent="WH0UgR2neAKPmFfiPMhs-4">
          <mxGeometry x="45" y="230" width="130" height="70" as="geometry" />
        </mxCell>
        <mxCell id="WH0UgR2neAKPmFfiPMhs-11" value="Isi Data Rak Buku" style="ellipse;whiteSpace=wrap;html=1;" vertex="1" parent="WH0UgR2neAKPmFfiPMhs-4">
          <mxGeometry x="42.5" y="150" width="130" height="70" as="geometry" />
        </mxCell>
        <mxCell id="WH0UgR2neAKPmFfiPMhs-12" value="Isi Data Buku" style="ellipse;whiteSpace=wrap;html=1;" vertex="1" parent="WH0UgR2neAKPmFfiPMhs-4">
          <mxGeometry x="45" y="60" width="130" height="70" as="geometry" />
        </mxCell>
        <mxCell id="WH0UgR2neAKPmFfiPMhs-13" value="&lt;b&gt;Perpus digital:&lt;br&gt;Book search tool&lt;br&gt;&lt;/b&gt;" style="text;strokeColor=none;align=center;fillColor=none;html=1;verticalAlign=middle;whiteSpace=wrap;rounded=0;" vertex="1" parent="WH0UgR2neAKPmFfiPMhs-4">
          <mxGeometry x="47.5" y="10" width="125" height="30" as="geometry" />
        </mxCell>
        <mxCell id="WH0UgR2neAKPmFfiPMhs-28" value="Pencarian Buku" style="ellipse;whiteSpace=wrap;html=1;" vertex="1" parent="WH0UgR2neAKPmFfiPMhs-4">
          <mxGeometry x="45" y="310" width="130" height="70" as="geometry" />
        </mxCell>
        <mxCell id="WH0UgR2neAKPmFfiPMhs-21" value="" style="endArrow=classic;html=1;rounded=0;exitX=0.5;exitY=0.5;exitDx=0;exitDy=0;exitPerimeter=0;entryX=1;entryY=0.5;entryDx=0;entryDy=0;" edge="1" parent="1" source="WH0UgR2neAKPmFfiPMhs-2" target="WH0UgR2neAKPmFfiPMhs-11">
          <mxGeometry width="50" height="50" relative="1" as="geometry">
            <mxPoint x="390" y="410" as="sourcePoint" />
            <mxPoint x="440" y="360" as="targetPoint" />
          </mxGeometry>
        </mxCell>
        <mxCell id="WH0UgR2neAKPmFfiPMhs-22" value="" style="endArrow=classic;html=1;rounded=0;exitX=0.5;exitY=0.5;exitDx=0;exitDy=0;exitPerimeter=0;entryX=1;entryY=0.5;entryDx=0;entryDy=0;" edge="1" parent="1" source="WH0UgR2neAKPmFfiPMhs-2" target="WH0UgR2neAKPmFfiPMhs-12">
          <mxGeometry width="50" height="50" relative="1" as="geometry">
            <mxPoint x="390" y="410" as="sourcePoint" />
            <mxPoint x="440" y="360" as="targetPoint" />
          </mxGeometry>
        </mxCell>
        <mxCell id="WH0UgR2neAKPmFfiPMhs-25" value="&lt;br&gt;&lt;br&gt;&lt;br&gt;&lt;br&gt;&lt;br&gt;&lt;br&gt;" style="shape=umlActor;verticalLabelPosition=bottom;verticalAlign=top;html=1;outlineConnect=0;" vertex="1" parent="1">
          <mxGeometry x="60" y="250" width="120" height="220" as="geometry" />
        </mxCell>
        <mxCell id="WH0UgR2neAKPmFfiPMhs-32" value="" style="endArrow=classic;html=1;rounded=0;entryX=1;entryY=0.5;entryDx=0;entryDy=0;exitX=0.5;exitY=0.5;exitDx=0;exitDy=0;exitPerimeter=0;" edge="1" parent="1" source="WH0UgR2neAKPmFfiPMhs-2" target="WH0UgR2neAKPmFfiPMhs-8">
          <mxGeometry width="50" height="50" relative="1" as="geometry">
            <mxPoint x="330" y="530" as="sourcePoint" />
            <mxPoint x="380" y="480" as="targetPoint" />
          </mxGeometry>
        </mxCell>
        <mxCell id="WH0UgR2neAKPmFfiPMhs-34" value="" style="endArrow=classic;html=1;rounded=0;exitX=0.5;exitY=0.5;exitDx=0;exitDy=0;exitPerimeter=0;entryX=0.032;entryY=0.304;entryDx=0;entryDy=0;entryPerimeter=0;" edge="1" parent="1" source="WH0UgR2neAKPmFfiPMhs-25" target="WH0UgR2neAKPmFfiPMhs-28">
          <mxGeometry width="50" height="50" relative="1" as="geometry">
            <mxPoint x="330" y="460" as="sourcePoint" />
            <mxPoint x="300" y="500" as="targetPoint" />
          </mxGeometry>
        </mxCell>
        <mxCell id="WH0UgR2neAKPmFfiPMhs-35" value="Anggota" style="text;html=1;align=center;verticalAlign=middle;resizable=0;points=[];autosize=1;strokeColor=none;fillColor=none;" vertex="1" parent="1">
          <mxGeometry x="85" y="464" width="70" height="30" as="geometry" />
        </mxCell>
      </root>
    </mxGraphModel>
  </diagram>
</mxfile>
